<?xml version="1.0" standalone="no"?>
<!DOCTYPE svg PUBLIC "-//W3C//DTD SVG 20010904//EN"
 "http://www.w3.org/TR/2001/REC-SVG-20010904/DTD/svg10.dtd">
<svg version="1.0" xmlns="http://www.w3.org/2000/svg"
 width="1920.000000pt" height="1200.000000pt" viewBox="0 0 1920.000000 1200.000000"
 preserveAspectRatio="xMidYMid meet">

<g transform="translate(0.000000,1200.000000) scale(0.100000,-0.100000)"
fill="#000000" stroke="none">
<path d="M0 6000 l0 -6000 9600 0 9600 0 0 6000 0 6000 -9600 0 -9600 0 0
-6000z m9037 -2384 c4 -7 33 -41 63 -74 l56 -60 45 41 c76 70 94 83 126 94 29
11 32 9 84 -50 30 -33 59 -69 65 -80 11 -20 12 -20 22 0 24 45 182 143 182
112 0 -5 5 -9 11 -9 5 0 7 5 3 12 -4 7 -3 8 5 4 6 -4 9 -12 6 -17 -7 -10 18
-39 33 -39 6 0 13 -7 16 -16 6 -15 4 -15 -11 -3 -10 7 -7 1 6 -14 14 -15 29
-27 35 -27 5 0 1 7 -10 15 -10 8 -14 15 -8 15 6 0 20 -10 32 -23 18 -19 19
-26 9 -37 -6 -7 3 -3 21 9 17 12 32 25 32 29 0 4 14 15 31 24 17 10 27 12 23
5 -4 -6 2 -3 14 7 26 23 41 14 21 -11 -7 -10 -10 -15 -5 -11 4 3 16 -2 27 -13
14 -14 24 -17 37 -11 9 5 23 7 30 5 6 -3 12 0 12 5 0 6 -6 12 -12 15 -7 2 -2
2 12 0 24 -3 24 -3 6 12 -11 8 -23 15 -28 15 -4 0 -8 9 -8 19 0 17 3 18 23 8
29 -16 68 -55 64 -66 -1 -5 1 -9 6 -10 28 -4 28 3 0 30 -18 16 -33 33 -33 37
0 4 -12 20 -26 35 -14 16 -23 31 -20 34 3 3 40 -27 82 -66 70 -67 77 -71 93
-57 10 9 21 16 26 16 4 0 13 7 20 16 14 20 65 27 65 9 0 -19 23 -24 66 -15 24
6 43 5 48 0 7 -7 0 -10 -16 -10 -15 0 -29 -7 -32 -16 -5 -14 -9 -14 -23 -3
-14 12 -16 12 -12 0 7 -21 38 -38 47 -26 4 6 36 10 72 9 70 0 97 13 197 94 49
39 66 37 82 -8 8 -25 8 -31 -2 -27 -7 3 -20 -1 -30 -8 -15 -11 -14 -13 8 -23
14 -6 25 -16 25 -22 0 -5 11 -10 25 -10 14 0 25 5 25 10 0 16 14 12 38 -11 25
-23 26 -23 106 43 56 47 59 48 77 32 11 -9 19 -12 19 -6 0 6 -4 14 -10 17 -13
8 -13 25 0 25 6 0 13 -8 17 -17 8 -24 34 -53 46 -53 5 0 7 7 3 15 -4 10 1 15
15 15 14 0 19 -5 16 -14 -4 -10 0 -12 14 -9 11 3 19 0 19 -6 0 -7 3 -10 8 -8
4 3 15 -6 24 -18 16 -22 16 -25 2 -39 -8 -9 -12 -16 -7 -16 4 0 39 30 77 66
39 37 84 75 100 85 34 21 66 25 66 9 0 -6 25 -36 55 -67 30 -31 55 -65 55 -75
0 -21 16 -24 27 -4 14 24 176 166 189 166 7 0 21 -13 31 -30 9 -16 21 -30 25
-30 4 0 26 -24 49 -52 l42 -53 -67 -61 c-37 -34 -91 -74 -119 -90 -29 -15 -70
-44 -92 -65 -22 -20 -71 -63 -110 -95 -38 -32 -74 -64 -80 -70 -5 -6 -41 -36
-80 -66 -84 -66 -118 -100 -121 -122 -3 -22 -232 -228 -287 -257 -19 -11 -53
19 -127 109 l-35 42 -119 -94 c-79 -63 -124 -92 -136 -89 -10 3 -40 32 -67 65
-26 33 -56 63 -66 67 -15 6 -3 22 73 94 50 48 87 87 82 87 -5 0 -15 -6 -21
-14 -7 -8 -25 -17 -40 -21 -16 -3 -33 -16 -39 -28 -11 -22 -11 -22 -11 -1 -1
15 10 27 32 38 l32 16 -29 0 c-23 0 -26 3 -17 13 6 8 8 17 4 20 -3 4 -1 7 5 7
7 0 12 -5 12 -12 0 -6 6 -3 14 7 18 25 10 38 -14 25 -19 -10 -50 -4 -50 10 0
4 7 13 15 20 8 7 15 22 15 34 0 17 2 18 9 6 6 -8 7 -19 4 -25 -4 -5 -2 -7 2
-2 14 12 13 47 -2 47 -7 0 -13 5 -13 11 0 6 -9 8 -22 4 -22 -7 -23 -7 -4 11
13 14 20 16 23 7 9 -25 23 -13 17 14 -6 21 -4 25 8 20 12 -4 14 0 11 14 -3 10
-9 19 -14 19 -4 0 -36 -23 -71 -52 -35 -29 -67 -56 -73 -60 -34 -26 -76 -59
-115 -90 -34 -27 -50 -34 -65 -28 -19 8 -19 8 5 18 23 10 21 11 -20 12 -59 1
-79 13 -63 39 13 21 2 24 -25 7 -12 -7 -12 -4 -2 14 13 25 4 42 -10 20 -7 -10
-10 -11 -10 -3 0 7 9 18 20 25 11 7 20 17 20 21 0 5 -23 -10 -52 -33 -30 -24
-58 -38 -66 -35 -9 3 -32 -8 -54 -25 -21 -17 -43 -28 -50 -24 -7 4 -8 3 -4 -4
4 -7 1 -12 -8 -12 -9 0 -16 7 -16 16 0 13 -3 14 -14 5 -11 -10 -17 -8 -25 6
-9 16 -10 16 -11 -4 0 -14 -6 -23 -15 -23 -8 0 -15 5 -15 11 0 5 -5 7 -11 3
-8 -4 -8 -1 -2 12 5 11 9 31 8 46 0 15 2 25 6 22 4 -2 10 0 13 5 11 17 -12 22
-28 5 -9 -8 -16 -12 -16 -7 0 4 -7 -1 -15 -11 -8 -11 -15 -15 -15 -8 0 6 10
20 22 32 12 11 17 20 11 20 -5 0 -21 -10 -34 -22 -71 -66 -105 -86 -142 -85
-20 0 -37 5 -37 9 0 4 6 8 13 8 6 0 4 5 -6 11 -25 14 -31 6 -17 -21 8 -15 9
-25 2 -32 -13 -13 -37 2 -37 22 0 8 -7 14 -16 12 -18 -3 -21 38 -4 50 6 4 -4
8 -20 8 -17 0 -36 -5 -41 -10 -8 -8 -15 -6 -25 6 -12 15 -9 20 26 50 27 23 34
34 23 34 -9 0 -23 -7 -31 -15 -8 -8 -17 -11 -21 -8 -3 4 -14 -1 -24 -11 -9 -9
-46 -38 -82 -64 -36 -26 -71 -55 -78 -64 -7 -10 -18 -18 -23 -18 -6 0 -17 -7
-25 -15 -9 -8 -21 -15 -27 -15 -7 1 -2 9 10 19 20 17 48 90 38 100 -3 2 -5 -1
-5 -8 0 -7 -4 -9 -10 -6 -12 7 -50 -12 -72 -37 -12 -14 -17 -15 -21 -6 -4 8
-6 7 -6 -4 -1 -10 -6 -18 -12 -18 -6 0 -8 7 -5 16 4 10 2 13 -6 8 -8 -5 -9 -2
-5 11 4 9 2 24 -4 31 -8 10 -7 12 8 10 10 -2 27 3 38 11 19 14 18 14 -12 10
-18 -3 -33 -4 -33 -3 0 3 112 116 115 116 1 0 22 19 47 43 24 23 75 70 114
105 38 35 56 55 39 45 -16 -10 -46 -32 -65 -50 -53 -47 -74 -65 -111 -93 -18
-14 -40 -32 -49 -40 -9 -8 -40 -34 -70 -57 -72 -55 -125 -101 -120 -105 29
-18 51 -27 45 -19 -3 6 -2 11 3 11 5 0 12 -9 15 -20 3 -13 1 -18 -6 -13 -7 4
14 -24 46 -61 32 -38 57 -72 55 -77 -4 -11 -130 -119 -139 -119 -5 0 -16 -14
-24 -30 -9 -17 -20 -28 -25 -25 -4 3 -21 -5 -37 -18 -35 -30 -67 -47 -88 -47
-8 0 -45 30 -80 66 l-65 65 -33 -25 c-19 -14 -41 -26 -49 -26 -9 0 -40 29 -69
65 -29 36 -56 65 -61 65 -5 0 -12 8 -15 17 -4 9 -23 33 -42 52 -67 67 -113
130 -107 146 8 23 -1 19 -71 -30 -35 -25 -66 -45 -69 -45 -3 0 -3 9 1 20 5 16
3 19 -11 13 -12 -4 -15 -3 -10 5 5 8 -2 10 -24 6 -22 -5 -30 -3 -31 7 0 8 -4
5 -8 -6 -7 -18 -9 -16 -15 12 -4 19 -15 35 -27 38 -10 4 -19 11 -19 16 0 6 5
7 10 4 12 -7 57 44 52 58 -1 5 2 6 8 2 5 -3 13 1 16 9 3 9 10 13 15 10 5 -3 9
1 9 10 0 8 24 35 53 60 76 66 51 56 -35 -14 -40 -33 -77 -64 -83 -68 -5 -4
-42 -30 -80 -59 -39 -28 -79 -61 -89 -72 -11 -12 -24 -21 -30 -21 -5 0 -23
-12 -39 -27 -24 -23 -27 -24 -16 -6 17 29 9 36 -46 37 -25 1 -45 4 -45 8 0 15
-35 48 -50 48 -8 0 3 15 25 32 47 39 121 110 85 82 -13 -10 -30 -24 -38 -31
-33 -31 -105 -78 -120 -78 -8 0 -17 -7 -20 -15 -3 -8 -1 -12 3 -8 5 4 15 3 22
-4 11 -9 17 -9 24 3 8 11 9 9 5 -6 -3 -11 0 -30 7 -41 11 -20 92 -112 195
-222 23 -25 42 -53 42 -61 0 -9 -30 -38 -65 -65 -36 -27 -65 -52 -65 -56 0 -4
-19 -15 -42 -23 -38 -15 -48 -15 -83 -3 -27 10 -43 22 -49 40 -6 14 -14 26
-19 26 -4 0 -5 10 -1 22 6 19 4 21 -7 12 -30 -24 -109 -63 -109 -54 0 6 -5 10
-10 10 -18 0 -114 109 -126 143 -12 33 -8 59 6 37 6 -9 9 -9 15 0 4 6 -1 20
-11 31 -16 17 -16 19 -1 19 10 0 17 5 17 11 0 6 -9 8 -22 3 -32 -9 -33 -11
-17 -31 13 -16 12 -17 -3 -5 -14 11 -19 8 -40 -20 -27 -38 -31 -68 -12 -83 11
-8 12 -17 2 -50 -9 -29 -39 -66 -104 -131 -50 -50 -103 -99 -117 -109 -26 -17
-29 -17 -46 0 -11 9 -32 41 -48 71 -15 30 -32 54 -38 54 -9 0 -104 -67 -142
-100 -18 -15 -23 -12 -23 9 0 11 6 21 13 24 6 2 9 7 6 11 -4 4 -22 -10 -40
-30 -19 -21 -44 -47 -56 -59 -29 -28 -116 -62 -120 -48 -2 6 -21 40 -42 75
-32 51 -43 62 -61 60 -15 -3 -20 0 -15 8 6 10 -14 11 -89 5 -59 -4 -96 -3 -96
3 0 5 33 38 73 72 39 35 97 88 127 117 61 59 58 58 185 72 l90 10 53 58 c60
65 114 147 104 159 -4 4 -2 4 4 1 7 -4 20 11 33 37 11 25 29 53 39 63 34 32
22 123 -16 123 -5 0 -56 -30 -113 -66 -166 -106 -151 -102 -204 -48 -26 25
-45 47 -43 49 2 1 44 29 93 60 50 32 109 71 133 86 53 36 79 36 114 4 32 -30
36 -30 60 -8 13 11 18 12 18 3 0 -7 -7 -18 -16 -25 -18 -12 -11 -55 8 -55 6 0
51 27 100 60 93 63 122 71 171 45 27 -14 32 -13 75 11 26 15 60 35 75 46 24
17 42 24 69 27 5 1 7 7 5 14 -1 6 6 11 15 11 10 -1 16 3 15 9 -1 6 4 12 11 13
6 1 17 2 22 3 6 0 10 7 10 14 0 17 47 40 55 27 7 -11 -12 -23 -25 -15 -5 3
-10 1 -10 -5 0 -6 16 -18 35 -26 20 -8 33 -18 30 -23 -6 -12 39 -41 62 -40 10
0 13 3 6 6 -23 9 11 31 39 26 20 -4 45 8 102 46 42 29 82 49 88 45 6 -4 8 -3
5 3 -7 11 23 23 56 23 14 0 17 -5 12 -21 -5 -16 -4 -19 6 -14 9 6 11 2 6 -14
-4 -17 -2 -21 9 -17 9 3 12 1 9 -4 -3 -6 0 -12 7 -15 21 -8 19 -40 -4 -56 -12
-8 -55 -47 -97 -88 -42 -41 -65 -65 -51 -54 14 11 32 25 40 31 8 6 45 37 81
69 36 32 98 81 137 108 39 28 73 58 75 67 6 20 122 98 146 98 9 0 27 -14 40
-30 13 -16 27 -27 32 -24 5 3 9 -3 9 -14 0 -25 30 -50 56 -47 12 1 43 17 70
36 27 19 66 42 87 52 36 16 38 16 44 -1 8 -21 35 -42 45 -36 5 3 13 2 20 -2 8
-5 6 -10 -8 -15 -18 -7 -18 -8 2 -8 11 -1 26 5 33 12 10 10 11 8 5 -8 -7 -18
-6 -19 9 -6 16 12 17 12 11 -5 -4 -10 -3 -16 1 -11 5 4 18 1 30 -7 20 -13 25
-12 58 15 22 18 42 27 49 23 7 -4 10 -4 6 1 -10 10 39 48 52 40 6 -4 9 -1 8 7
-2 7 3 12 11 10 8 -2 11 3 8 12 -12 30 64 50 80 22z m-364 -25 c-4 -3 -8 -12
-9 -18 -3 -34 -5 -37 -15 -20 -8 13 -7 22 1 33 10 11 10 14 1 14 -7 0 -9 5 -6
10 5 8 11 7 21 -1 8 -7 11 -15 7 -18z m1724 23 c-3 -3 -12 -4 -19 -1 -8 3 -5
6 6 6 11 1 17 -2 13 -5z m1741 -25 c-23 -13 -23 -39 0 -39 10 0 23 -5 30 -12
7 -7 12 -8 12 -3 0 5 14 -4 30 -20 17 -16 30 -34 30 -41 0 -7 5 -16 12 -20 7
-5 8 -2 3 7 -6 11 -5 12 6 1 11 -10 9 -16 -13 -37 -14 -13 -29 -21 -32 -18 -3
4 -6 -1 -6 -10 0 -17 -125 -129 -205 -183 -27 -18 -62 -44 -77 -56 -141 -122
-304 -248 -314 -244 -6 3 -17 -1 -23 -7 -8 -8 -11 -7 -11 4 -1 9 -7 7 -20 -9
-25 -30 -25 -30 -47 -9 -11 9 -23 14 -26 10 -4 -3 -7 -2 -7 4 0 6 7 16 15 23
13 10 15 9 15 -10 0 -18 3 -20 13 -11 8 6 17 8 20 4 11 -11 8 44 -4 71 -14 29
-51 38 -79 19 -35 -25 -22 1 23 43 53 51 150 139 252 229 43 39 97 87 119 108
23 21 56 51 75 65 19 15 48 38 65 52 68 55 67 55 77 39 8 -10 9 -8 4 9 -7 23
9 32 18 10 4 -9 6 -8 6 3 1 20 21 39 41 39 12 -1 12 -2 -2 -11z m-2133 -49 c3
-5 1 -18 -5 -27 -9 -16 -10 -15 -5 4 5 18 3 22 -9 17 -9 -3 -16 -1 -16 5 0 14
27 15 35 1z m2513 -7 c-21 -5 -24 -28 -5 -40 13 -8 19 -10 44 -12 14 -1 14 -3
-3 -23 -10 -13 -12 -18 -4 -11 9 7 23 8 38 2 28 -11 29 -19 0 -11 -14 3 -19 1
-14 -6 3 -6 18 -8 32 -6 20 4 25 1 21 -10 -4 -10 -1 -13 9 -9 8 3 14 -1 14 -8
0 -20 -126 -133 -219 -198 -83 -58 -278 -214 -297 -237 -6 -8 -15 -14 -19 -14
-5 0 -31 -17 -59 -38 -28 -21 -66 -49 -85 -61 l-33 -24 13 24 c7 13 12 27 11
32 -1 4 5 7 14 7 12 0 9 6 -10 21 -15 12 -25 28 -22 35 3 8 -1 14 -9 14 -9 0
-12 6 -9 15 4 8 2 15 -4 15 -5 0 -12 -7 -16 -15 -3 -8 -11 -15 -17 -15 -8 0
-7 5 2 17 12 15 12 16 -6 9 -11 -4 -27 -10 -35 -13 -22 -8 170 177 271 261
238 197 296 244 318 256 14 7 34 21 45 31 11 11 27 18 35 18 13 -1 12 -2 -1
-6z m428 -56 c1 -9 -2 -15 -7 -11 -5 3 -9 -7 -9 -22 0 -21 3 -24 13 -15 11 8
19 5 36 -15 12 -14 19 -29 15 -35 -9 -16 17 -40 37 -34 33 11 22 -21 -18 -51
-20 -15 -50 -42 -67 -59 -49 -50 -148 -126 -221 -170 -58 -35 -79 -50 -120
-83 -5 -4 -39 -28 -75 -52 -36 -25 -69 -51 -73 -58 -5 -7 -18 -12 -30 -11 -12
0 -24 0 -27 -1 -27 -10 -42 -5 -52 16 -6 13 -16 24 -21 24 -5 0 -5 6 2 13 6 8
8 17 4 21 -4 4 3 9 15 13 23 6 26 15 13 47 -7 19 -8 19 -13 -2 -4 -12 -12 -22
-20 -21 -10 0 -10 2 0 6 14 5 17 23 4 23 -5 0 -20 -9 -33 -21 -20 -17 -21 -22
-9 -31 12 -8 12 -9 -3 -4 -10 3 -32 -1 -49 -10 -50 -26 -43 -8 15 35 31 22 59
45 62 51 4 6 23 21 43 34 21 13 91 70 157 127 138 119 301 249 314 249 4 0 28
16 52 35 47 37 61 39 65 12z m415 -77 c5 0 9 -6 9 -13 0 -10 -10 -12 -32 -9
-19 3 -29 1 -25 -4 5 -5 18 -9 30 -9 16 0 23 -8 28 -30 6 -28 7 -29 14 -7 9
28 35 30 28 2 -3 -11 0 -20 6 -20 6 0 11 8 11 18 1 9 7 3 15 -16 8 -18 19 -31
25 -27 20 12 10 -24 -13 -47 -121 -119 -312 -272 -369 -294 -23 -10 -50 -23
-58 -30 -70 -61 -117 -93 -162 -110 -10 -3 -18 -10 -18 -15 0 -5 -7 -6 -15 -3
-9 4 -15 0 -15 -9 0 -26 -23 -37 -44 -21 -19 14 -19 15 6 18 28 3 17 25 -16
31 -38 8 -72 35 -42 35 9 0 16 4 16 9 0 4 12 21 26 37 16 16 22 30 15 32 -12
4 5 24 53 60 16 12 27 22 24 22 -8 0 -161 -101 -168 -110 -7 -11 -71 -42 -76
-38 -2 3 3 13 12 24 8 10 12 12 8 4 -4 -8 3 -5 15 8 12 12 25 22 29 22 4 0 18
10 32 23 14 12 40 33 58 46 18 12 30 26 27 31 -4 7 133 125 198 170 12 8 31
23 41 32 11 10 24 18 28 18 5 0 7 4 3 9 -6 11 35 42 47 35 4 -3 8 1 8 8 0 7
10 19 23 27 17 10 19 11 10 0 -23 -24 -14 -33 10 -11 13 12 28 19 32 15 5 -5
3 0 -4 9 -11 15 -10 17 10 13 21 -4 73 30 129 84 13 13 15 12 18 -2 2 -9 8
-17 13 -17z m485 -82 c-2 -13 -8 -22 -13 -21 -6 1 -9 -8 -8 -20 3 -29 3 -29
16 -21 8 5 8 9 -1 14 -8 5 -7 9 5 14 14 5 16 1 10 -25 -5 -22 -4 -29 4 -25 6
4 11 14 11 22 0 9 5 14 11 12 6 -2 10 -7 9 -11 0 -5 9 -17 22 -27 13 -11 19
-19 13 -20 -5 0 1 -7 13 -16 12 -8 22 -24 22 -35 0 -10 5 -19 12 -19 6 0 -19
-21 -58 -46 -38 -26 -86 -60 -106 -76 -20 -16 -52 -34 -70 -40 -18 -6 -35 -14
-38 -18 -3 -3 -26 -19 -52 -35 -27 -17 -48 -34 -48 -38 0 -5 -4 -6 -9 -3 -4 3
-28 -14 -53 -37 -53 -52 -138 -110 -138 -96 0 6 -5 7 -10 4 -6 -4 -7 -11 -4
-17 4 -6 -1 -8 -16 -3 -12 4 -20 3 -17 -2 3 -4 -13 -7 -36 -5 -40 3 -41 2 -22
-14 20 -16 19 -16 -5 -9 -22 7 -23 6 -11 -9 8 -9 9 -16 3 -16 -6 0 -12 6 -15
13 -5 17 3 47 14 47 5 0 9 11 9 24 0 20 -4 23 -22 19 -22 -4 -22 -3 2 11 l25
15 -27 1 c-15 0 -30 5 -33 10 -3 6 1 10 9 10 10 0 13 6 9 17 -5 13 -2 15 12
10 15 -6 16 -5 6 7 -11 13 -17 12 -47 -7 -19 -12 -43 -27 -54 -32 -10 -6 -25
-17 -34 -24 -9 -8 -20 -11 -24 -7 -4 4 0 11 8 16 8 5 24 15 35 24 19 15 19 15
-5 10 l-25 -6 25 21 c14 11 31 21 37 21 13 0 42 21 77 55 12 12 46 33 77 49
31 15 69 39 85 53 29 25 29 25 2 9 -31 -18 -38 -20 -38 -7 0 5 8 12 18 16 24
8 87 63 80 70 -3 4 -30 -6 -60 -21 -29 -14 -51 -24 -48 -21 10 10 189 126 220
142 31 16 31 16 20 -5 -6 -11 -14 -19 -18 -16 -10 6 -106 -64 -98 -71 3 -3 63
31 133 75 70 43 137 82 148 86 11 3 27 15 35 26 19 26 31 25 26 -2z m454 -39
c0 -6 20 -40 45 -76 25 -35 45 -75 45 -88 0 -30 -75 -90 -132 -106 -22 -5 -54
-24 -71 -41 -18 -17 -43 -36 -57 -42 -55 -25 -159 -99 -223 -160 -18 -17 -32
-25 -35 -18 -2 8 -11 8 -28 1 -14 -5 -36 -6 -50 -3 -19 5 -26 1 -33 -17 l-10
-24 -1 25 c-1 22 -2 23 -11 7 -14 -24 -50 -37 -71 -25 -10 5 -18 6 -18 2 0 -8
42 -67 53 -75 12 -8 -12 -30 -59 -54 -21 -11 -41 -22 -44 -25 -29 -32 -236
-143 -250 -135 -16 10 -110 154 -110 169 0 7 15 20 33 29 17 9 79 48 137 87
58 39 121 78 140 88 44 21 187 117 220 147 14 12 52 40 85 63 33 22 76 57 95
77 19 20 70 57 113 82 42 25 77 49 77 54 0 5 3 8 8 7 10 -3 89 39 97 52 8 14
55 13 55 -1z m-7785 -78 c-33 -32 -76 -67 -95 -78 -38 -21 -100 -29 -100 -14
0 13 33 31 57 31 10 0 43 23 73 50 30 27 60 48 67 46 6 -3 17 2 23 10 7 8 18
14 24 14 6 0 -16 -27 -49 -59z m-144 9 c-13 -11 -30 -20 -39 -20 -8 0 -46 -30
-84 -66 -38 -37 -72 -63 -76 -59 -4 4 31 43 78 86 67 63 90 79 115 79 l30 -1
-24 -19z m-211 4 c0 -3 -16 -36 -35 -73 l-35 -66 -142 -58 c-79 -32 -155 -63
-170 -70 -15 -6 -30 -9 -33 -6 -7 8 43 98 72 131 23 24 105 62 263 122 71 27
80 29 80 20z m8658 -78 c29 -47 52 -93 52 -103 -1 -20 -80 -83 -104 -83 -21 0
-66 -22 -66 -32 0 -4 -5 -8 -11 -8 -6 0 -33 -16 -59 -35 -26 -19 -54 -35 -63
-35 -8 0 -20 -7 -28 -16 -7 -9 -38 -29 -68 -45 -75 -40 -121 -67 -136 -82 -7
-7 -32 -21 -56 -31 -24 -10 -51 -22 -59 -27 -8 -5 -27 -17 -42 -27 -15 -9 -32
-28 -37 -42 -6 -17 -41 -44 -112 -86 -180 -106 -219 -125 -239 -119 -10 3 -37
39 -60 80 -23 44 -47 75 -56 75 -33 0 -4 27 87 82 52 32 115 71 141 88 26 17
90 50 142 74 53 25 113 57 133 73 21 15 42 31 48 35 5 4 24 19 41 33 18 14 36
25 42 25 6 0 12 3 14 8 5 11 107 95 151 124 25 17 34 28 25 31 -7 3 -3 6 10 6
28 1 57 16 83 42 10 10 31 22 45 25 15 4 46 17 68 30 23 13 46 24 52 24 6 0
34 -38 62 -84z m-392 -82 c-21 -14 -70 -43 -109 -63 -40 -21 -93 -49 -120 -64
-26 -14 -45 -21 -42 -16 7 10 116 78 213 131 77 43 115 50 58 12z m-4021 -14
c-3 -5 -11 -10 -16 -10 -6 0 -7 5 -4 10 3 6 11 10 16 10 6 0 7 -4 4 -10z
m-4115 -20 c0 -6 -26 -10 -57 -10 -41 0 -54 3 -43 10 20 13 100 13 100 0z
m480 -10 c0 -5 -5 -10 -11 -10 -5 0 -7 5 -4 10 3 6 8 10 11 10 2 0 4 -4 4 -10z
m-42 -26 c-7 -15 -14 -21 -16 -15 -2 6 -16 11 -30 11 -26 1 -26 1 -8 15 11 8
30 15 43 15 21 0 22 -2 11 -26z m-314 3 c19 -14 19 -48 1 -54 -13 -4 -47 51
-38 61 9 9 17 8 37 -7z m217 -27 c-24 -21 -41 -26 -41 -12 0 15 24 32 45 32
19 -1 19 -1 -4 -20z m6559 -4 c0 -2 -7 -7 -16 -10 -8 -3 -12 -2 -9 4 6 10 25
14 25 6z m-6629 -26 c-13 -11 -32 -20 -42 -20 -11 0 -22 -7 -25 -15 -4 -8 -10
-15 -15 -15 -5 0 -3 11 3 25 6 14 19 25 29 25 10 0 21 5 24 10 3 6 16 10 28
10 l22 -1 -24 -19z m3849 10 c-8 -5 -22 -9 -30 -9 -10 0 -8 3 5 9 27 12 43 12
25 0z m-3722 -45 c-13 -14 -68 -9 -68 5 0 4 17 15 38 23 33 13 37 13 40 0 2
-9 -2 -21 -10 -28z m3117 35 c3 -5 1 -10 -4 -10 -6 0 -11 5 -11 10 0 6 2 10 4
10 3 0 8 -4 11 -10z m-360 -30 c3 -5 1 -10 -4 -10 -6 0 -11 5 -11 10 0 6 2 10
4 10 3 0 8 -4 11 -10z m-2845 -21 c0 -12 -42 -29 -54 -21 -5 3 1 13 13 24 23
18 41 16 41 -3z m-1070 -9 c0 -14 -48 -35 -58 -26 -8 9 26 36 45 36 7 0 13 -5
13 -10z m6400 6 c0 -3 -4 -8 -10 -11 -5 -3 -10 -1 -10 4 0 6 5 11 10 11 6 0
10 -2 10 -4z m-5500 -21 c0 -3 -9 -23 -19 -44 -19 -37 -51 -72 -51 -55 0 4
-13 -12 -29 -37 -35 -55 -182 -209 -198 -209 -32 0 2 40 139 168 40 36 108
142 108 166 0 10 9 16 25 16 14 0 25 -2 25 -5z m81 -15 c-24 -21 -41 -26 -41
-12 0 15 24 32 45 32 19 -1 19 -1 -4 -20z m-65 -32 c-19 -27 -21 -19 -4 18 7
14 14 21 16 15 2 -6 -4 -21 -12 -33z m5079 32 c3 -5 1 -10 -4 -10 -6 0 -11 5
-11 10 0 6 2 10 4 10 3 0 8 -4 11 -10z m1067 -12 c-7 -7 -12 -8 -12 -2 0 14
12 26 19 19 2 -3 -1 -11 -7 -17z m-6779 -29 c15 -7 27 -15 27 -18 0 -3 -68
-35 -151 -70 -99 -41 -157 -61 -172 -57 -96 25 -117 31 -117 37 0 3 17 13 38
22 20 8 82 36 137 61 88 40 107 45 155 42 30 -2 67 -10 83 -17z m5876 -60 c33
-43 61 -82 61 -87 0 -13 -83 -82 -99 -82 -6 0 -11 -6 -12 -12 0 -21 -102 -92
-132 -94 -42 -3 -91 21 -105 50 -13 29 -23 32 -52 14 -16 -10 -23 -10 -37 5
-11 11 -14 20 -8 26 33 33 311 260 316 258 4 -1 34 -36 68 -78z m-443 -1 c28
-35 57 -75 66 -89 l16 -26 -81 -60 c-132 -97 -119 -94 -171 -39 -52 53 -54 63
-26 96 11 13 20 25 20 27 0 6 -59 -27 -65 -37 -3 -5 -15 -15 -27 -21 -17 -9
-16 -5 8 26 35 46 185 185 200 185 6 0 33 -28 60 -62z m-4769 46 c-3 -3 -12
-4 -19 -1 -8 3 -5 6 6 6 11 1 17 -2 13 -5z m6613 -14 c-24 -15 -37 -11 -16 5
11 8 22 12 25 9 3 -3 -1 -9 -9 -14z m-7630 0 c0 -5 -5 -10 -11 -10 -5 0 -7 5
-4 10 3 6 8 10 11 10 2 0 4 -4 4 -10z m-30 -17 c0 -2 -24 -18 -52 -36 -61 -37
-112 -57 -148 -57 -24 1 -24 1 -6 15 11 8 28 15 39 15 10 0 15 5 12 10 -3 6 2
13 12 17 10 3 28 14 41 24 14 11 38 17 63 16 21 -1 39 -3 39 -4z m7830 -9 c0
-17 -22 -14 -28 4 -2 7 3 12 12 12 9 0 16 -7 16 -16z m-8020 -14 c0 -5 -4 -10
-8 -10 -5 0 -19 -9 -32 -20 -13 -11 -31 -20 -42 -20 -10 0 -18 -7 -18 -15 0
-8 -15 -17 -37 -21 -21 -4 -41 -11 -44 -17 -4 -5 -12 -8 -19 -5 -7 2 6 16 29
31 23 15 47 25 54 21 7 -4 9 -4 5 1 -9 10 34 44 70 55 37 11 42 11 42 0z
m8610 -5 c-7 -9 -15 -13 -17 -11 -7 7 7 26 19 26 6 0 6 -6 -2 -15z m-1889 -5
c10 -6 19 -19 19 -29 0 -11 14 -33 30 -51 17 -18 39 -45 50 -60 l19 -27 -32
-30 c-65 -61 -219 -171 -203 -145 3 6 2 13 -3 16 -18 11 -61 106 -61 135 0 16
-5 31 -10 33 -14 4 52 77 115 127 58 47 51 44 76 31z m1834 0 c3 -5 2 -10 -4
-10 -5 0 -13 5 -16 10 -3 6 -2 10 4 10 5 0 13 -4 16 -10z m-1055 -10 c8 -5 11
-10 5 -10 -5 0 -17 5 -25 10 -8 5 -10 10 -5 10 6 0 17 -5 25 -10z m-7775 -37
c-9 -16 -22 -35 -28 -44 -7 -9 -91 -41 -187 -71 -96 -30 -183 -59 -192 -63
-29 -12 -22 18 15 59 29 33 49 43 197 91 91 29 175 54 188 54 23 1 23 0 7 -26z
m4682 0 c7 -19 48 -67 98 -115 29 -28 29 -29 11 -43 -11 -8 -28 -15 -39 -15
-10 0 -16 -4 -13 -9 12 -19 -20 -17 -61 3 -38 19 -49 37 -44 69 0 4 -6 7 -15
7 -14 0 -14 3 -4 15 31 38 -37 4 -97 -49 -13 -11 -23 -15 -23 -9 0 13 158 163
171 163 5 0 13 -8 16 -17z m3328 -85 l57 -92 -26 -23 c-67 -57 -250 -152 -283
-147 -7 1 -17 2 -23 3 -5 0 -10 6 -10 11 0 6 -10 20 -22 32 -21 21 -21 22 -2
29 18 7 18 8 -2 8 -35 1 -34 11 2 43 52 46 41 51 -28 12 -86 -49 -98 -29 -16
27 34 24 110 76 168 116 58 39 110 72 116 72 7 1 38 -40 69 -91z m-7235 42
c-5 -3 -26 -4 -45 -2 -28 3 -33 7 -25 18 17 19 53 22 67 5 8 -9 9 -17 3 -21z
m-22 -27 c-2 -13 -14 -19 -41 -21 -41 -4 -50 13 -14 28 37 15 59 12 55 -7z
m-342 -7 c18 -14 18 -15 1 -22 -19 -7 -67 13 -67 28 0 13 45 9 66 -6z m174 4
c0 -11 -42 -30 -66 -30 -23 0 -16 15 14 27 36 14 52 15 52 3z m4350 1 c0 -5 2
-16 5 -23 3 -8 -2 -14 -13 -15 -26 -2 -110 -60 -116 -81 -7 -21 -39 -41 -80
-53 l-31 -8 30 22 c17 12 64 55 105 94 69 67 100 87 100 64z m-4370 -50 c0
-15 -28 -33 -46 -29 -27 5 -28 26 -2 31 40 8 48 7 48 -2z m4420 -35 c0 -5 -7
-3 -15 4 -8 7 -15 20 -15 28 0 13 3 12 15 -4 8 -10 15 -23 15 -28z m2252 25
c-1 -6 20 -40 48 -76 51 -66 61 -89 35 -79 -11 4 -13 2 -10 -9 7 -16 -21 -31
-30 -16 -4 5 -2 8 3 7 10 -3 12 1 12 24 0 6 -3 9 -6 6 -7 -7 -45 28 -43 40 3
19 -3 32 -19 41 -25 13 -134 -35 -112 -49 12 -8 10 -10 -9 -10 -14 0 -62 -23
-109 -51 -154 -92 -111 -52 137 130 79 57 110 70 103 42z m-6817 -51 c-16 -16
-35 -30 -42 -30 -19 0 -16 34 5 52 47 41 79 22 37 -22z m425 0 c10 0 21 6 23
13 3 7 6 5 6 -5 1 -10 -3 -18 -8 -18 -5 0 -7 -8 -4 -18 5 -19 39 -27 48 -11 4
5 1 9 -5 9 -6 0 -8 4 -5 10 3 5 17 9 30 8 26 -2 26 -1 -21 -60 -19 -23 -24
-25 -45 -14 -16 7 -26 23 -30 46 l-6 35 -2 -32 c-1 -30 20 -63 40 -63 5 0 9
-4 9 -10 0 -5 -7 -10 -15 -10 -8 0 -15 -4 -15 -9 0 -4 -25 -34 -55 -66 -30
-31 -53 -61 -50 -66 3 -4 -7 -11 -22 -14 -15 -3 -39 -12 -53 -20 -74 -41 -133
-66 -144 -62 -7 3 -16 23 -20 44 -3 21 -15 57 -25 79 l-19 42 -99 -48 c-169
-81 -197 -78 -48 5 47 27 83 50 81 53 -3 2 -44 -1 -91 -8 -47 -7 -89 -10 -92
-7 -9 9 7 26 40 44 18 9 71 42 120 74 l87 59 136 21 c75 11 148 25 162 30 31
12 57 -6 32 -21 -13 -9 -13 -11 0 -19 20 -14 30 -4 31 32 2 30 2 31 6 5 3 -19
10 -28 23 -28z m60 0 c0 -5 -4 -10 -10 -10 -5 0 -10 5 -10 10 0 6 5 10 10 10
6 0 10 -4 10 -10z m3200 2 c0 -5 -12 -14 -27 -21 l-28 -12 25 21 c29 22 30 23
30 12z m-4722 -89 c-2 -12 -14 -19 -36 -21 -35 -4 -43 11 -14 27 28 17 54 13
50 -6z m7097 8 c3 -5 1 -12 -5 -16 -5 -3 -10 1 -10 9 0 18 6 21 15 7z m-6215
-41 c0 -11 -80 -54 -87 -46 -3 3 9 13 26 24 17 10 28 22 24 25 -3 4 3 7 15 7
12 0 22 -4 22 -10z m-1100 -9 c0 -9 -33 -21 -59 -21 -10 0 -11 3 -3 13 12 14
62 21 62 8z m1845 -21 c0 -15 -52 -36 -63 -25 -9 9 38 47 52 42 6 -2 11 -10
11 -17z m-65 6 c0 -2 -19 -16 -41 -31 -23 -15 -38 -22 -34 -15 4 6 21 20 39
31 32 20 36 21 36 15z m-1870 -20 c0 -3 -4 -8 -10 -11 -5 -3 -10 -1 -10 4 0 6
5 11 10 11 6 0 10 -2 10 -4z m1040 -36 c-13 -10 -35 -21 -47 -23 -20 -4 -21
-2 -11 11 15 17 71 43 78 35 3 -2 -6 -13 -20 -23z m950 3 c0 -12 -36 -32 -57
-33 -29 0 -29 8 -2 36 17 18 26 21 40 13 11 -5 19 -12 19 -16z m-2026 -76
c-60 -34 -129 -77 -153 -95 -52 -38 -79 -43 -36 -7 51 43 136 96 210 131 107
50 100 40 -21 -29z m1821 33 c7 -11 -54 -45 -63 -35 -7 7 34 45 49 45 4 0 10
-4 14 -10z m-1885 -17 c-1 -5 -33 -27 -73 -51 -40 -23 -97 -58 -128 -78 -46
-29 -73 -38 -155 -50 -54 -8 -104 -13 -111 -12 -25 6 201 142 277 167 32 10
127 27 173 30 9 0 17 -2 17 -6z m1046 -24 c9 -15 -14 -29 -46 -29 l-25 1 24
19 c27 23 37 25 47 9z m10219 2 c94 -14 -42 -40 -215 -41 -69 0 -201 -3 -295
-5 -235 -7 -395 -6 -406 0 -5 4 -7 11 -4 16 4 5 -1 9 -9 9 -9 0 -16 5 -16 10
0 14 106 12 130 -2 17 -11 22 -10 30 2 6 10 10 11 10 3 0 -7 11 -13 25 -13 14
0 25 5 25 10 0 6 24 10 60 9 33 -1 60 -6 60 -10 0 -12 174 -11 186 0 5 5 23
11 39 14 51 7 327 6 380 -2z m-9335 -14 c0 -18 -21 -37 -41 -37 -24 0 -33 18
-19 35 15 19 60 20 60 2z m-826 -3 c24 -9 19 -20 -13 -34 -30 -12 -51 -7 -51
11 0 8 13 16 47 28 1 1 8 -2 17 -5z m10468 -18 c8 -12 -16 -24 -49 -25 -16 -1
-23 5 -23 18 0 30 54 35 72 7z m-128 -1 c4 -12 -6 -15 -59 -15 -60 0 -75 6
-58 23 3 4 30 7 59 7 37 0 54 -4 58 -15z m436 -3 c148 -8 220 -20 220 -37 0
-4 -12 -5 -27 -4 -16 1 -93 1 -173 0 -107 -2 -137 -5 -115 -12 17 -5 57 -7 90
-4 33 3 76 1 95 -3 35 -9 34 -9 -23 -17 -32 -4 -78 -5 -102 -3 -56 7 -82 -8
-32 -17 20 -4 71 -2 114 3 49 7 82 7 88 1 6 -6 0 -9 -15 -9 -22 1 -161 -27
-167 -33 -1 -2 -3 -42 -4 -90 -2 -68 -6 -90 -18 -97 -20 -10 -262 -24 -287
-16 -17 5 -19 16 -19 88 l0 83 -440 2 c-275 1 -449 5 -465 12 -19 8 0 10 85
10 61 0 135 3 165 6 30 4 63 7 73 8 9 1 17 5 17 9 0 12 -108 10 -132 -3 -14
-7 -23 -8 -30 -1 -6 6 -16 8 -23 6 -7 -3 -16 -1 -20 5 -4 7 6 11 27 12 18 1
44 3 58 5 14 1 149 8 300 14 186 7 307 17 375 30 104 20 150 18 141 -7 -4 -10
-1 -11 14 -3 10 5 37 10 60 10 71 0 33 20 -82 45 -51 10 -29 24 30 20 31 -3
131 -9 222 -13z m-10890 -16 c0 -16 -22 -26 -53 -26 -22 1 -22 1 2 20 27 23
51 26 51 6z m-120 -31 c0 -16 -46 -32 -58 -20 -8 8 26 35 45 35 7 0 13 -7 13
-15z m70 -20 c0 -18 -34 -37 -54 -29 -21 8 -20 21 2 33 25 15 52 13 52 -4z
m11145 -15 c-3 -5 -13 -6 -21 -3 -12 4 -13 8 -3 14 15 9 32 2 24 -11z m-1516
-16 c38 -8 36 -25 -4 -36 -15 -4 -31 -11 -34 -16 -20 -28 -53 -39 -99 -32 -26
5 -109 11 -184 15 -168 9 -192 23 -108 62 27 12 373 18 429 7z m-9959 -55 c0
-16 -57 -114 -74 -128 -16 -14 -301 -92 -358 -99 -46 -5 -48 5 -13 64 28 47
38 52 225 108 63 19 133 42 155 50 49 18 65 19 65 5z m-810 -6 c0 -15 -52 -73
-66 -73 -20 0 -18 17 7 51 18 25 59 41 59 22z m-270 -58 c0 -8 -41 -27 -68
-30 -22 -3 -19 0 13 15 41 20 55 24 55 15z m95 -5 c33 13 61 -4 35 -20 -20
-13 -70 -13 -70 0 0 6 -9 6 -26 0 -33 -13 -37 -13 -32 2 5 15 51 28 59 16 3
-5 18 -4 34 2z m191 -65 c21 -16 12 -18 -35 -9 -17 4 -31 10 -31 15 0 14 44
10 66 -6z m-180 -13 c5 -5 28 -14 52 -21 23 -6 42 -16 42 -20 0 -7 -182 -90
-288 -131 -36 -14 -84 -8 -119 15 -41 27 -47 23 152 111 122 54 144 61 161 46z
m414 -17 c0 -2 -15 -12 -32 -21 -18 -9 -35 -20 -38 -24 -7 -10 -70 -42 -70
-36 0 7 122 86 132 86 4 0 8 -2 8 -5z m-200 -20 c-6 -8 -21 -17 -33 -21 -12
-4 -44 -23 -72 -44 -50 -37 -117 -61 -95 -34 18 20 130 84 149 84 10 0 24 7
31 15 7 8 17 15 22 15 6 0 5 -6 -2 -15z m10650 -6 c0 -10 -40 -19 -95 -20
l-50 -2 55 -7 c73 -10 90 -18 90 -42 0 -11 30 -51 66 -89 48 -49 63 -70 52
-74 -7 -3 -81 -4 -162 -3 -136 3 -150 5 -160 23 -6 11 -17 24 -24 30 -9 7 -11
23 -6 53 6 37 10 42 33 43 20 1 15 4 -19 13 -68 18 -84 27 -68 37 7 5 29 9 48
10 20 1 26 3 15 6 -84 18 -48 29 100 28 69 0 125 -3 125 -6z m823 4 c-24 -2
-62 -2 -85 0 -24 2 -5 4 42 4 47 0 66 -2 43 -4z m-11403 -13 c0 -14 -49 -32
-62 -24 -7 5 -4 12 7 21 22 15 55 17 55 3z m9821 -11 c-16 -6 -28 -6 -35 1 -7
7 1 10 25 9 32 0 33 -1 10 -10z"/>
<path d="M8580 3560 c0 -5 4 -10 9 -10 6 0 13 5 16 10 3 6 -1 10 -9 10 -9 0
-16 -4 -16 -10z"/>
<path d="M8950 3550 c0 -5 5 -10 11 -10 5 0 7 5 4 10 -3 6 -8 10 -11 10 -2 0
-4 -4 -4 -10z"/>
<path d="M8703 3475 c-17 -13 -16 -14 7 -12 14 0 28 6 32 12 5 6 8 6 8 -2 0
-7 5 -13 12 -13 9 0 9 3 0 12 -17 17 -38 18 -59 3z"/>
<path d="M10085 3470 c-3 -5 -1 -10 4 -10 6 0 11 5 11 10 0 6 -2 10 -4 10 -3
0 -8 -4 -11 -10z"/>
<path d="M10110 3444 l-25 -15 25 7 c28 7 35 12 29 18 -2 2 -15 -2 -29 -10z"/>
<path d="M7857 3439 c7 -7 15 -10 18 -7 3 3 -2 9 -12 12 -14 6 -15 5 -6 -5z"/>
<path d="M10340 3430 c0 -5 5 -10 11 -10 5 0 7 5 4 10 -3 6 -8 10 -11 10 -2 0
-4 -4 -4 -10z"/>
<path d="M9035 3409 c-16 -10 -24 -19 -17 -19 8 0 25 9 39 20 32 25 18 25 -22
-1z"/>
<path d="M7910 3408 c0 -9 5 -20 11 -23 17 -11 18 -2 3 19 -12 17 -14 17 -14
4z"/>
<path d="M8985 3368 c-11 -6 -26 -20 -33 -30 -7 -10 -20 -18 -28 -18 -8 0 -14
-4 -14 -10 0 -5 -5 -10 -11 -10 -6 0 -24 -13 -39 -30 -15 -16 -32 -30 -37 -30
-5 0 -24 -16 -43 -35 -19 -19 -38 -35 -42 -35 -15 0 -90 -84 -79 -88 18 -6
191 133 191 155 0 4 16 18 35 31 19 12 35 27 35 32 0 6 4 10 10 10 5 0 27 16
47 35 39 37 41 42 8 23z"/>
<path d="M11064 3357 c-5 -7 -21 -19 -35 -28 -13 -9 -22 -19 -19 -22 3 -3 23
10 45 28 22 19 36 34 30 34 -5 0 -15 -5 -21 -12z"/>
<path d="M9959 3323 c-13 -16 -12 -17 4 -4 16 13 21 21 13 21 -2 0 -10 -8 -17
-17z"/>
<path d="M11359 3316 c-20 -14 -60 -47 -89 -75 -30 -28 -57 -51 -61 -51 -10 0
-80 -62 -157 -137 -35 -35 -68 -63 -73 -63 -6 0 -7 -4 -4 -10 3 -5 3 -10 -2
-10 -10 -1 -82 -67 -103 -95 -14 -19 -14 -19 6 -5 12 8 64 52 115 98 59 52
102 82 116 82 13 0 23 5 23 11 0 6 9 8 23 4 17 -5 19 -4 7 5 -16 11 11 39 196
207 69 62 70 85 3 39z"/>
<path d="M10275 3274 c-57 -43 -85 -74 -68 -74 9 0 141 119 133 119 -3 0 -32
-20 -65 -45z"/>
<path d="M8164 3268 l-19 -21 28 18 c28 18 33 25 19 25 -5 0 -17 -10 -28 -22z"/>
<path d="M7200 3213 c-20 -8 -130 -83 -130 -89 0 -7 135 68 138 78 2 4 9 5 14
2 7 -4 8 -2 4 4 -4 7 -8 12 -9 11 -1 0 -9 -3 -17 -6z"/>
<path d="M7245 3171 c6 -11 4 -13 -9 -8 -12 5 -45 -7 -95 -34 -77 -42 -131
-79 -115 -79 15 0 -31 -28 -51 -32 -11 -1 -26 -9 -33 -15 -15 -15 -7 -34 11
-27 7 2 13 -6 13 -21 1 -14 -2 -25 -7 -25 -5 0 -9 7 -9 15 0 10 -9 14 -31 11
-22 -3 -29 0 -25 10 3 9 -2 14 -14 14 -11 0 -20 4 -20 10 0 5 13 7 30 4 19 -4
30 -2 30 5 0 6 -7 11 -15 11 -8 0 -15 4 -15 9 0 15 -38 1 -44 -16 -4 -9 -1
-22 5 -29 9 -11 8 -14 -5 -14 -9 0 -20 -8 -23 -17 -4 -10 -12 -22 -20 -26 -7
-4 -13 -14 -13 -22 0 -7 -5 -16 -10 -18 -6 -3 -5 -4 2 -3 14 3 43 -22 35 -30
-3 -3 -14 -1 -25 5 -17 9 -23 6 -37 -16 -15 -23 -16 -25 -2 -20 9 3 19 2 22
-2 6 -10 -21 -23 -50 -25 -13 -1 -21 -9 -23 -24 -2 -15 -9 -22 -17 -18 -18 7
-27 -5 -14 -20 7 -8 18 -10 32 -5 30 11 47 3 47 -20 0 -19 1 -19 25 -2 37 27
37 40 1 36 -29 -4 -30 -3 -13 11 10 8 18 17 17 20 -1 4 1 12 3 19 4 9 8 8 16
-3 9 -13 11 -13 11 2 0 9 10 20 22 24 13 4 28 14 35 23 10 13 12 13 13 1 0
-11 3 -11 12 -2 19 19 29 14 22 -13 l-6 -25 63 6 c61 5 66 8 115 59 46 48 144
210 144 239 0 6 7 24 15 40 12 22 13 32 4 40 -9 8 -10 7 -4 -3z m-118 -127 c6
-15 8 -15 21 2 14 18 14 18 7 -1 -4 -11 -12 -33 -17 -50 -6 -16 -15 -34 -21
-40 -10 -10 -8 -2 9 40 3 8 1 15 -5 15 -7 0 -14 -6 -16 -12 -19 -54 -28 -71
-32 -60 -3 7 1 19 7 27 15 18 6 45 -15 45 -24 0 -18 18 13 34 35 20 41 19 49
0z m-296 -154 c10 0 19 -5 19 -11 0 -6 -7 -8 -16 -5 -9 3 -20 6 -25 6 -5 0 -9
8 -8 18 0 10 3 12 6 5 2 -7 13 -13 24 -13z m109 -14 c0 -3 -4 -8 -10 -11 -5
-3 -10 -1 -10 4 0 6 5 11 10 11 6 0 10 -2 10 -4z"/>
<path d="M10790 3095 c-7 -9 -19 -14 -25 -11 -7 2 -32 -13 -56 -34 -44 -39
-44 -39 -11 -27 30 11 34 10 55 -16 15 -20 27 -26 39 -22 10 4 16 11 13 15 -3
5 5 16 17 24 15 11 18 16 8 16 -8 0 -26 3 -39 7 -15 4 -22 2 -18 -4 3 -5 -1
-10 -10 -10 -10 0 -2 12 21 32 20 17 36 34 36 38 0 12 -17 8 -30 -8z"/>
<path d="M8710 3071 c0 -5 5 -13 10 -16 6 -3 10 -2 10 4 0 5 -4 13 -10 16 -5
3 -10 2 -10 -4z"/>
<path d="M6860 3056 c0 -2 7 -7 16 -10 8 -3 12 -2 9 4 -6 10 -25 14 -25 6z"/>
<path d="M11150 3025 c0 -8 4 -15 10 -15 5 0 7 7 4 15 -4 8 -8 15 -10 15 -2 0
-4 -7 -4 -15z"/>
<path d="M9760 3010 c0 -5 5 -10 11 -10 5 0 7 5 4 10 -3 6 -8 10 -11 10 -2 0
-4 -4 -4 -10z"/>
<path d="M7456 2975 c-3 -8 -12 -15 -21 -15 -8 0 -15 -3 -15 -7 0 -5 -19 -21
-41 -38 -41 -30 -88 -85 -72 -85 13 0 179 159 167 160 -7 0 -14 -7 -18 -15z"/>
<path d="M10092 2981 c-11 -6 -10 -10 4 -15 9 -3 19 -4 22 -1 3 3 0 5 -7 5 -7
0 -9 5 -6 10 7 12 4 12 -13 1z"/>
<path d="M10470 2980 c-8 -5 -12 -12 -9 -15 4 -3 12 1 19 10 14 17 11 19 -10
5z"/>
<path d="M7220 2969 c0 -5 5 -7 10 -4 6 3 10 8 10 11 0 2 -4 4 -10 4 -5 0 -10
-5 -10 -11z"/>
<path d="M10594 2949 c-19 -22 -19 -22 4 -8 12 8 22 17 22 21 0 12 -6 9 -26
-13z"/>
<path d="M7167 2895 c-9 -19 -14 -42 -10 -52 5 -12 2 -15 -10 -10 -11 4 -17 1
-17 -7 0 -18 27 -28 34 -13 5 9 7 9 12 0 3 -7 10 -13 16 -13 7 0 7 4 1 13 -15
19 -23 58 -10 50 6 -4 8 0 4 10 -3 9 -1 19 5 23 7 4 8 3 4 -4 -4 -7 -2 -12 3
-12 12 0 14 11 5 34 -9 24 -19 19 -37 -19z"/>
<path d="M7106 2815 c-4 -11 -2 -14 7 -10 6 4 4 0 -6 -8 -17 -14 -16 -15 3
-20 27 -7 34 8 17 33 -13 18 -15 19 -21 5z"/>
<path d="M7100 2765 c0 -5 5 -17 10 -25 5 -8 10 -10 10 -5 0 6 -5 17 -10 25
-5 8 -10 11 -10 5z"/>
<path d="M6690 2684 c0 -8 5 -12 10 -9 6 3 10 10 10 16 0 5 -4 9 -10 9 -5 0
-10 -7 -10 -16z"/>
<path d="M6710 2648 c0 -4 7 -8 15 -8 8 0 15 4 15 8 0 5 -7 9 -15 9 -8 0 -15
-4 -15 -9z"/>
<path d="M12135 3530 c-3 -5 -2 -10 4 -10 5 0 13 5 16 10 3 6 2 10 -4 10 -5 0
-13 -4 -16 -10z"/>
<path d="M12194 3500 c0 -13 4 -16 10 -10 7 7 7 13 0 20 -6 6 -10 3 -10 -10z"/>
<path d="M11496 3043 c-11 -11 -6 -23 9 -23 8 0 15 4 15 9 0 13 -16 22 -24 14z"/>
<path d="M13421 3284 c0 -11 3 -14 6 -6 3 7 2 16 -1 19 -3 4 -6 -2 -5 -13z"/>
<path d="M12770 2821 c0 -5 9 -7 20 -4 11 3 20 7 20 9 0 2 -9 4 -20 4 -11 0
-20 -4 -20 -9z"/>
<path d="M13480 3080 c-14 -11 -21 -20 -17 -20 5 0 20 9 34 20 14 11 22 20 17
20 -5 0 -20 -9 -34 -20z"/>
<path d="M13565 3089 c-11 -17 1 -21 15 -4 8 9 8 15 2 15 -6 0 -14 -5 -17 -11z"/>
<path d="M14027 3123 c-37 -25 -66 -48 -63 -50 5 -5 146 83 146 92 0 11 -18 2
-83 -42z"/>
<path d="M13734 2875 c-12 -9 -14 -14 -6 -15 7 0 20 7 28 15 20 19 4 20 -22 0z"/>
<path d="M13643 2822 c-23 -15 -42 -31 -43 -35 0 -12 36 -48 63 -62 22 -11 23
-10 20 9 -2 13 6 32 22 48 58 62 15 90 -62 40z"/>
<path d="M13800 2760 c0 -5 5 -10 10 -10 6 0 10 5 10 10 0 6 -4 10 -10 10 -5
0 -10 -4 -10 -10z"/>
<path d="M14525 3069 c-22 -11 -46 -27 -54 -34 -12 -12 -11 -13 7 -8 12 3 27
11 33 19 6 8 17 14 24 14 7 0 18 7 25 15 16 20 12 19 -35 -6z"/>
<path d="M14240 2815 c-14 -17 -35 -21 -25 -5 4 6 -5 5 -19 -2 -14 -6 -26 -15
-26 -20 0 -4 -7 -8 -16 -8 -19 0 -94 -42 -94 -53 0 -5 5 -5 12 -1 7 4 8 3 4
-4 -4 -7 0 -22 8 -34 11 -15 16 -18 16 -8 0 13 2 13 9 1 14 -22 40 -22 51 0 6
10 20 19 30 19 11 0 20 5 20 10 0 6 -6 10 -12 10 -9 0 -8 4 2 10 20 13 39 12
20 -1 -13 -9 -13 -10 0 -6 8 2 17 12 18 23 2 10 12 28 22 39 15 16 16 22 5 32
-10 10 -16 9 -25 -2z"/>
<path d="M14190 2679 c0 -5 5 -7 10 -4 6 3 10 8 10 11 0 2 -4 4 -10 4 -5 0
-10 -5 -10 -11z"/>
<path d="M14130 2636 c7 -7 13 -7 20 0 6 6 3 10 -10 10 -13 0 -16 -4 -10 -10z"/>
<path d="M5730 2451 c0 -6 5 -13 10 -16 6 -3 10 1 10 9 0 9 -4 16 -10 16 -5 0
-10 -4 -10 -9z"/>
<path d="M5755 2388 c7 -40 12 -45 32 -32 29 18 29 37 1 32 -21 -4 -24 -1 -20
14 2 10 -1 18 -7 18 -7 0 -9 -12 -6 -32z"/>
<path d="M15663 2103 c9 -2 23 -2 30 0 6 3 -1 5 -18 5 -16 0 -22 -2 -12 -5z"/>
<path d="M15037 2070 c-48 -3 -88 -9 -90 -14 -3 -12 281 -19 328 -8 l40 10
-42 1 c-24 1 -43 5 -43 9 0 9 -57 10 -193 2z"/>
</g>
</svg>
